<?xml version="1.0" encoding="UTF-8" standalone="no"?>
<!-- Created with Inkscape (http://www.inkscape.org/) -->

<svg
   width="300"
   height="100"
   viewBox="0 0 79.374998 26.458333"
   version="1.1"
   id="svg1"
   inkscape:version="1.3.2 (091e20e, 2023-11-25)"
   sodipodi:docname="logo.svg"
   xmlns:inkscape="http://www.inkscape.org/namespaces/inkscape"
   xmlns:sodipodi="http://sodipodi.sourceforge.net/DTD/sodipodi-0.dtd"
   xmlns="http://www.w3.org/2000/svg"
   xmlns:svg="http://www.w3.org/2000/svg">
  <sodipodi:namedview
     id="namedview1"
     pagecolor="#ffffff"
     bordercolor="#000000"
     borderopacity="0.25"
     inkscape:showpageshadow="2"
     inkscape:pageopacity="0.0"
     inkscape:pagecheckerboard="0"
     inkscape:deskcolor="#d1d1d1"
     inkscape:document-units="mm"
     showguides="true"
     showgrid="false"
     inkscape:zoom="1.3629515"
     inkscape:cx="165.44976"
     inkscape:cy="78.139244"
     inkscape:window-width="1480"
     inkscape:window-height="804"
     inkscape:window-x="0"
     inkscape:window-y="38"
     inkscape:window-maximized="0"
     inkscape:current-layer="layer1">
    <inkscape:grid
       id="grid5"
       units="mm"
       originx="0"
       originy="0"
       spacingx="0.99999998"
       spacingy="1"
       empcolor="#0099e5"
       empopacity="0.30196078"
       color="#0099e5"
       opacity="0.14901961"
       empspacing="5"
       dotted="false"
       gridanglex="30"
       gridanglez="30"
       visible="false" />
  </sodipodi:namedview>
  <defs
     id="defs1" />
  <g
     inkscape:label="goindigo"
     inkscape:groupmode="layer"
     id="layer1"
     style="display:inline"
     transform="translate(-102.68246,-96.742567)">
    <path
       style="font-style:italic;font-size:26.5913px;font-family:'EB Garamond';-inkscape-font-specification:'EB Garamond, Normal';stroke-width:0.276991"
       d="m 129.30417,115.86171 q -0.45205,0 -0.74455,-0.2925 -0.29251,-0.29251 -0.29251,-0.6116 0,-0.10637 0,-0.21273 0.0266,-0.10637 0.0798,-0.21273 1.09024,-2.20708 1.8348,-4.14825 0.74455,-1.96775 1.32956,-3.43027 0.10637,-0.3191 -0.13295,-0.3191 -0.13296,0 -0.53183,0.15955 -0.37228,0.13295 -0.79774,0.37228 -0.42546,0.23932 -0.74456,0.47864 -0.13295,0.10637 -0.26591,0.0532 -0.13296,-0.0532 -0.13296,-0.18614 0,-0.13295 0.18614,-0.37227 0.21273,-0.26592 0.55842,-0.58501 0.37228,-0.3191 0.87751,-0.66479 0.50524,-0.37227 1.09025,-0.71796 0.6116,-0.37228 1.27638,-0.66478 0.23932,-0.10637 0.47864,0.0532 0.23932,0.15955 0.37228,0.39887 0.15955,0.23932 0.10637,0.37228 l -3.24414,7.68488 q -0.10637,0.21273 -0.15955,0.42546 -0.0266,0.18614 -0.0266,0.34569 0,0.18614 0.13296,0.26591 0.15954,0.0532 0.2925,0.0532 0.37228,0 0.85092,-0.34569 0.47864,-0.37228 1.01047,-0.87751 0.55842,-0.53183 1.06365,-1.03706 0.0532,-0.0532 0.10637,-0.0532 0.0532,0 0.10636,0.0532 0.0532,0.0266 0.0532,0.0798 0,0.42546 -0.50524,1.09024 -0.50523,0.63819 -1.27638,1.30298 -0.74456,0.63819 -1.5423,1.09024 -0.79774,0.45205 -1.40934,0.45205 z m 5.37145,-14.01361 q -0.39887,0 -0.66479,-0.3191 -0.26591,-0.31909 -0.26591,-0.71796 0,-0.63819 0.42546,-1.116838 0.42546,-0.505235 1.06365,-0.505235 0.42546,0 0.66479,0.372278 0.23932,0.345687 0.23932,0.771145 0,0.58501 -0.42546,1.06365 -0.42546,0.45206 -1.03706,0.45206 z m 0.14605,14.06679 q -0.15955,0 -0.3191,-0.13295 -0.13295,-0.10637 -0.23932,-0.29251 -0.10636,-0.15954 -0.15955,-0.37227 -0.0266,-0.21274 0.0532,-0.37228 l 3.08459,-7.55193 q 0.47864,-1.17002 0.0532,-1.17002 -0.26591,0 -0.55842,0.0798 -0.2925,0.0532 -0.63819,0.3191 -0.34569,0.26591 -0.77115,0.82433 -0.10636,0.10637 -0.23932,0.10637 -0.10636,-0.0266 -0.15955,-0.21273 0,-0.15955 0.0798,-0.39887 0.10636,-0.26592 0.23932,-0.50524 0.13296,-0.26591 0.23932,-0.42546 0.39887,-0.6116 1.06365,-0.95729 0.69138,-0.34568 1.59548,-0.37227 0.29251,0 0.53183,0.15954 0.23932,0.13296 0.34568,0.39887 0.13296,0.26592 0,0.58501 l -1.75502,4.52052 q -0.0798,0.18614 0.0266,0.21273 0.13296,0.0266 0.21273,-0.10636 1.09024,-1.86139 2.20708,-3.13778 1.14342,-1.30297 2.18048,-1.96775 1.03706,-0.66478 1.8348,-0.66478 0.55842,0 0.95729,0.39886 0.42546,0.37228 0.53183,1.03707 0.13295,0.63819 -0.23933,1.48911 l -2.44639,5.7969 q -0.39887,0.95729 0.13295,0.95729 0.3191,0 0.77115,-0.23932 0.47864,-0.23933 0.95729,-0.55842 0.47864,-0.34569 0.82433,-0.6116 0.37227,-0.2925 0.47864,-0.39887 0.0266,-0.0266 0.0266,-0.0266 0.0266,0 0.0532,0 0.0798,0 0.13296,0.0798 0.0798,0.0532 0.0798,0.15955 0,0.21273 -0.10636,0.37228 -0.69137,0.82433 -1.48911,1.48911 -0.77115,0.66478 -1.62207,1.06365 -0.82433,0.37228 -1.67525,0.37228 -0.23933,0 -0.47865,-0.18614 -0.23932,-0.15955 -0.37228,-0.42546 -0.10636,-0.26591 0.0266,-0.55842 0.77115,-1.78161 1.5423,-3.53664 0.79774,-1.78162 1.48911,-3.56323 0.42546,-1.09025 0.29251,-1.51571 -0.13296,-0.45205 -0.50524,-0.47864 -0.2925,-0.0266 -0.69137,0.21273 -0.39887,0.21273 -0.90411,0.69137 -0.50523,0.45206 -1.09024,1.17002 -0.31909,0.37228 -0.85092,1.17002 -0.53183,0.77115 -1.19661,1.80821 -0.66478,1.01047 -1.38275,2.18048 -0.69137,1.14343 -1.32956,2.26026 -0.23932,0.42546 -0.42546,0.6116 -0.18614,0.21273 -0.39887,0.21273 z m 12.3709,-0.0532 q -0.77115,0 -1.2498,-0.53182 -0.47864,-0.53183 -0.47864,-1.38275 0,-1.01047 0.42546,-2.26026 0.45205,-1.24979 1.19661,-2.52618 0.77115,-1.27638 1.72844,-2.36662 1.03706,-1.17002 2.10071,-1.80821 1.06365,-0.66478 1.91457,-0.66478 0.34569,0 0.55842,0.10636 0.21273,0.0798 0.95729,0.55842 0.55841,0.34569 0.6116,0.39887 0.0798,0.0266 0.0266,0.0266 0.0798,0 0.13295,-0.18614 l 1.78162,-5.98304 q 0.0532,-0.159548 0.0532,-0.239322 0.0266,-0.106365 0.0266,-0.132957 0.0266,-0.05318 0.0266,-0.07977 0,-0.05318 0,-0.07977 0,-0.292505 -0.15955,-0.452053 -0.15955,-0.186139 -0.58501,-0.345686 -0.58501,-0.212731 -0.69138,-0.239322 -0.10636,-0.05318 -0.10636,-0.132957 0,-0.186139 0.21273,-0.292504 0.21273,-0.106365 0.69137,-0.186139 0.39887,-0.05318 0.79774,-0.106365 0.42546,-0.07977 0.77115,-0.106365 0.34569,-0.05318 0.58501,-0.07977 0.23932,-0.02659 0.31909,-0.02659 0.3191,0 0.3191,0.372279 0,0.132956 -0.0266,0.292504 -0.0266,0.132956 -0.0798,0.319096 l -4.3078,14.917714 q -0.0532,0.21273 -0.10636,0.42547 -0.0266,0.18613 -0.0266,0.39886 0,0.58501 0.37228,0.58501 0.34568,0 0.82433,-0.23932 0.47864,-0.26591 0.95728,-0.69137 0.47865,-0.42546 0.82433,-0.90411 0.0532,-0.0798 0.10637,-0.10636 0.0532,-0.0266 0.10636,-0.0266 0.21273,0 0.15955,0.21273 0,0.2925 -0.2925,0.74455 -0.29251,0.45206 -0.77115,0.95729 -0.47864,0.47864 -1.03706,0.9041 -0.53183,0.42547 -1.03706,0.69138 -0.50524,0.26591 -0.85092,0.26591 -0.29251,0 -0.55842,-0.18614 -0.26591,-0.15955 -0.45205,-0.42546 -0.15955,-0.2925 -0.15955,-0.58501 0,-0.13295 0.10637,-0.69137 0.0532,-0.29251 0.15954,-0.71797 0.10637,-0.45205 0.18614,-0.85092 0.10637,-0.42546 0.13296,-0.6116 0.0532,-0.18614 0,0.0532 0.0532,-0.21274 -0.0266,-0.29251 -0.0532,-0.10636 -0.13296,0.0266 -1.8348,2.31345 -3.21755,3.29732 -1.38274,0.98388 -2.81867,0.98388 z m 0.98387,-1.24979 q 0.71797,0 1.56889,-0.50523 0.85092,-0.53183 1.67525,-1.38275 0.85092,-0.87751 1.5423,-1.91458 0.71796,-1.03706 1.14342,-2.07412 0.42546,-1.03706 0.42546,-1.91457 0,-0.77115 -0.34568,-1.19661 -0.34569,-0.45205 -0.98388,-0.45205 -0.6116,0 -1.38275,0.58501 -0.77115,0.58501 -1.56888,1.54229 -0.79774,0.95729 -1.48912,2.10072 -0.66478,1.11683 -1.09024,2.23366 -0.39887,1.11684 -0.39887,1.96776 0,0.58501 0.18614,0.79774 0.21273,0.21273 0.71796,0.21273 z m 10.77063,1.24979 q -0.45205,0 -0.74455,-0.2925 -0.29251,-0.29251 -0.29251,-0.6116 0,-0.10637 0,-0.21273 0.0266,-0.10637 0.0798,-0.21273 1.09024,-2.20708 1.8348,-4.14825 0.74455,-1.96775 1.32956,-3.43027 0.10637,-0.3191 -0.13296,-0.3191 -0.13295,0 -0.53182,0.15955 -0.37228,0.13295 -0.79774,0.37228 -0.42546,0.23932 -0.74456,0.47864 -0.13295,0.10637 -0.26591,0.0532 -0.13296,-0.0532 -0.13296,-0.18614 0,-0.13295 0.18614,-0.37227 0.21273,-0.26592 0.55842,-0.58501 0.37228,-0.3191 0.87751,-0.66479 0.50524,-0.37227 1.09025,-0.71796 0.6116,-0.37228 1.27638,-0.66478 0.23932,-0.10637 0.47864,0.0532 0.23932,0.15955 0.37228,0.39887 0.15955,0.23932 0.10636,0.37228 l -3.24413,7.68488 q -0.10637,0.21273 -0.15955,0.42546 -0.0266,0.18614 -0.0266,0.34569 0,0.18614 0.13295,0.26591 0.15955,0.0532 0.29251,0.0532 0.37228,0 0.85092,-0.34569 0.47864,-0.37228 1.01047,-0.87751 0.55842,-0.53183 1.06365,-1.03706 0.0532,-0.0532 0.10637,-0.0532 0.0532,0 0.10636,0.0532 0.0532,0.0266 0.0532,0.0798 0,0.42546 -0.50523,1.09024 -0.50524,0.63819 -1.27638,1.30298 -0.74456,0.63819 -1.5423,1.09024 -0.79774,0.45205 -1.40934,0.45205 z m 5.37145,-14.01361 q -0.39887,0 -0.66479,-0.3191 -0.26591,-0.31909 -0.26591,-0.71796 0,-0.63819 0.42546,-1.116838 0.42546,-0.505235 1.06365,-0.505235 0.42546,0 0.66479,0.372278 0.23932,0.345687 0.23932,0.771145 0,0.58501 -0.42546,1.06365 -0.42546,0.45206 -1.03706,0.45206 z m 1.85277,21.35281 q -1.5423,0 -2.81868,-0.37228 -1.24979,-0.34569 -1.99435,-1.01047 -0.74456,-0.63819 -0.74456,-1.54229 0,-0.6116 0.82434,-1.17002 0.82433,-0.53183 2.04753,-1.01047 1.22319,-0.47864 2.4198,-0.87751 0.21273,-0.0798 0.0532,-0.23932 -0.58501,-0.50524 -0.9307,-0.87752 -0.34569,-0.34568 -0.34569,-0.77114 0,-0.37228 0.37228,-0.77115 0.39887,-0.42546 0.95729,-0.85092 0.13296,-0.13296 0.15955,-0.21273 0.0532,-0.0798 0.0532,-0.10637 0,-0.0798 -0.21273,-0.15955 -0.53183,-0.26591 -0.85092,-0.6116 -0.29251,-0.34568 -0.42546,-0.79774 -0.10637,-0.47864 -0.10637,-1.06365 0,-0.9041 0.39887,-1.96775 0.39887,-1.09025 1.09024,-2.07413 0.69138,-0.98387 1.62207,-1.59547 0.9307,-0.63819 1.99435,-0.63819 0.55842,0 0.79774,0.13295 0.26591,0.10637 0.42546,0.18614 0.18614,0.10637 0.37228,0.21273 0.18614,0.0798 0.37228,0.0798 0.2925,0 0.77114,-0.0798 0.47865,-0.10636 0.98388,-0.18614 0.50524,-0.0798 0.85092,-0.0798 0.15955,0 0.37228,0.15955 0.21273,0.13295 0.21273,0.45205 0,0.50523 -0.15955,0.71796 -0.15954,0.21273 -0.31909,0.21273 -0.23932,0 -0.66478,-0.0798 -0.42546,-0.0798 -0.82433,-0.15955 -0.37228,-0.0798 -0.58501,-0.0798 -0.13296,0 -0.26592,0.0798 -0.10636,0.0798 -0.0532,0.29251 0.0532,0.21273 0.0798,0.45205 0.0266,0.23932 0.0266,0.50523 0,1.03706 -0.42546,2.12731 -0.39887,1.06365 -1.09025,1.99434 -0.69137,0.90411 -1.56888,1.46253 -0.85092,0.55841 -1.72844,0.55841 -0.18614,0 -0.34568,0.10637 -0.13296,0.0798 -0.23933,0.21273 -0.2925,0.37228 -0.2925,0.77115 0,0.47864 0.23932,0.79774 0.26591,0.31909 0.9307,0.77114 0.45205,0.29251 1.06365,0.69138 0.63819,0.42546 1.24979,0.79774 0.6116,0.39887 0.98388,0.69137 0.58501,0.42546 0.79774,0.77115 0.23932,0.37228 0.23932,0.77115 0,0.69137 -0.55842,1.30297 -0.53182,0.6116 -1.40934,1.06365 -0.87751,0.47864 -1.88798,0.74456 -0.98388,0.26591 -1.91457,0.26591 z m 0.79774,-0.79774 q 1.06365,0 1.72843,-0.26591 0.66478,-0.26591 0.98388,-0.69138 0.31909,-0.39887 0.31909,-0.87751 0,-0.39887 -0.23932,-0.85092 -0.23932,-0.42546 -0.85092,-0.77115 -0.21273,-0.15955 -0.74456,-0.50523 -0.50523,-0.34569 -0.79774,-0.47865 -0.47864,-0.26591 -0.74455,-0.26591 -0.15955,0 -0.34569,0.0266 -0.15955,0.0266 -0.31909,0.0798 -1.59548,0.50523 -2.55277,1.09024 -0.95729,0.6116 -0.95729,1.43593 0,0.58501 0.69138,1.03706 0.66478,0.47864 1.70184,0.74456 1.03706,0.2925 2.12731,0.2925 z m 0.26591,-9.59946 q 0.47864,0 0.95729,-0.47864 0.50523,-0.47864 0.95728,-1.24979 0.45205,-0.77115 0.79774,-1.62207 0.37228,-0.87751 0.58501,-1.67525 0.21273,-0.79774 0.21273,-1.30298 0,-0.39887 -0.26591,-0.82433 -0.26592,-0.42546 -0.66479,-0.42546 -0.50523,0 -1.01047,0.42546 -0.50523,0.42546 -0.98387,1.14343 -0.45206,0.69137 -0.82433,1.54229 -0.37228,0.82433 -0.6116,1.67526 -0.21273,0.82433 -0.23932,1.5157 0,0.50523 0.31909,0.9041 0.34569,0.37228 0.77115,0.37228 z m 8.06844,3.058 q -0.6382,0 -1.19661,-0.42546 -0.55842,-0.42546 -0.90411,-1.11683 -0.31909,-0.69138 -0.31909,-1.46253 0,-1.24979 0.47864,-2.68572 0.50523,-1.46252 1.38275,-2.7389 0.87751,-1.30297 2.02094,-2.1273 1.17001,-0.82433 2.49958,-0.82433 1.32956,0 2.04753,0.9041 0.74455,0.9041 0.74455,2.23367 0,1.19661 -0.47864,2.63254 -0.47864,1.40934 -1.38275,2.68572 -0.87751,1.27638 -2.1273,2.10071 -1.2232,0.82433 -2.76549,0.82433 z m 0.42546,-0.79774 q 0.63819,0 1.27638,-0.55841 0.66478,-0.55842 1.24979,-1.46253 0.6116,-0.9041 1.06365,-1.99434 0.47864,-1.09025 0.74456,-2.18049 0.2925,-1.09024 0.2925,-1.99435 0,-0.69137 -0.23932,-1.14342 -0.21273,-0.45206 -0.9041,-0.45206 -0.6116,0 -1.27639,0.50524 -0.63819,0.50523 -1.24979,1.35616 -0.58501,0.85092 -1.06365,1.91457 -0.47864,1.03706 -0.77115,2.18049 -0.26591,1.11683 -0.26591,2.18048 0,0.87751 0.2925,1.27638 0.3191,0.37228 0.85093,0.37228 z"
       id="text2"
       inkscape:label="indigo"
       aria-label="indigo" />
    <path
       style="font-style:italic;font-size:25.4px;font-family:'EB Garamond';-inkscape-font-specification:'EB Garamond, @wght=700';font-variation-settings:'wght' 700;stroke-width:0.264583"
       d="m 108.34666,122.85525 q -1.5748,0 -2.8702,-0.3556 -1.27,-0.3302 -2.032,-0.9398 -0.762,-0.5842 -0.762,-1.3462 0,-0.7112 0.6604,-1.2954 0.6604,-0.5588 1.778,-1.016 1.0922,-0.4572 2.413,-0.8128 0.3048,-0.1016 0.0508,-0.2286 -0.508,-0.3048 -0.9398,-0.7874 -0.4318,-0.4572 -0.4318,-0.9652 0,-0.5588 0.5842,-0.9906 0.6096,-0.4572 1.4732,-0.9144 0.1524,-0.1016 0.2286,-0.1778 0.1016,-0.1016 0.1016,-0.1524 0,-0.1016 -0.254,-0.2032 -0.4572,-0.2286 -0.9144,-0.6096 -0.4572,-0.381 -0.762,-0.9144 -0.2794,-0.5588 -0.2794,-1.2192 0,-0.8128 0.381,-1.7272 0.381,-0.9398 1.0922,-1.778 0.7112,-0.8636 1.778,-1.397 1.0668,-0.5334 2.4638,-0.5334 0.4826,0 0.9144,0.1524 0.4318,0.127 0.7874,0.2794 0.4064,0.1778 0.7366,0.3302 0.3302,0.127 0.5334,0.127 0.4318,0 0.8382,-0.1016 0.4318,-0.1016 0.8128,-0.2032 0.4064,-0.1016 0.7366,-0.1016 0.1778,0 0.4064,0.1524 0.254,0.127 0.254,0.5334 0,0.4572 -0.2032,0.762 -0.1778,0.3048 -0.4826,0.3048 -0.2286,0 -0.5334,-0.0508 -0.2794,-0.0508 -0.6096,-0.0762 -0.3048,-0.0508 -0.5842,-0.0508 -0.127,0 -0.2286,0.0508 -0.1016,0.0254 -0.0508,0.2286 0.0508,0.1778 0.0508,0.3556 0.0254,0.1524 0.0254,0.3302 0,1.016 -0.4064,2.032 -0.4064,0.9906 -1.143,1.8034 -0.7112,0.7874 -1.7018,1.27 -0.9652,0.4826 -2.1336,0.4826 -0.2286,0 -0.4826,0 -0.2286,-0.0254 -0.3556,0.0254 -0.254,0.1778 -0.254,0.4318 0,0.2794 0.254,0.5842 0.2794,0.2794 0.7366,0.6096 0.4826,0.3048 1.1176,0.7112 0.635,0.381 1.27,0.7874 0.6604,0.4064 1.2446,0.7874 0.6096,0.4064 0.9398,0.8636 0.3302,0.4826 0.3302,0.9906 0,0.762 -0.5842,1.4478 -0.5588,0.7112 -1.524,1.27 -0.9398,0.5588 -2.1082,0.889 -1.143,0.3556 -2.3622,0.3556 z m 1.0922,-0.9144 q 0.6604,0 1.27,-0.2286 0.6096,-0.2032 0.9906,-0.5842 0.381,-0.381 0.381,-0.8382 0,-0.2794 -0.2032,-0.6096 -0.1778,-0.3048 -0.508,-0.508 -0.5334,-0.3556 -1.27,-0.8128 -0.7366,-0.4318 -1.1938,-0.6604 -0.2032,-0.1016 -0.381,-0.1016 -0.1524,0 -0.2794,0.0254 -0.1016,0.0254 -0.2286,0.0762 -1.2192,0.3556 -1.8542,0.8382 -0.6096,0.508 -0.6096,1.3716 0,0.5334 0.4064,0.9906 0.4318,0.4826 1.2954,0.762 0.8636,0.2794 2.1844,0.2794 z m 0.254,-9.8552 q 0.4318,0.0508 0.9144,-0.3556 0.4826,-0.4064 0.9144,-1.0922 0.4318,-0.6858 0.7874,-1.4732 0.3556,-0.8128 0.5588,-1.5494 0.2286,-0.762 0.2286,-1.27 0,-0.4826 -0.2032,-0.762 -0.1778,-0.2794 -0.4826,-0.2794 -0.4064,0 -0.8636,0.4318 -0.4318,0.4064 -0.8636,1.0922 -0.4318,0.6604 -0.7874,1.4478 -0.3556,0.762 -0.5842,1.4986 -0.2032,0.7112 -0.2032,1.2192 0,0.5588 0.1524,0.8128 0.1778,0.254 0.4318,0.2794 z m 9.89094,3.7592 q -0.9652,0 -1.8288,-0.4572 -0.8382,-0.4572 -1.3462,-1.27 -0.508,-0.8128 -0.508,-1.8796 0,-1.1684 0.4826,-2.5146 0.508,-1.3462 1.4732,-2.5146 0.9652,-1.1938 2.3114,-1.9558 1.3716,-0.762 3.0988,-0.762 1.7018,0 2.7178,0.9652 1.0414,0.9652 1.0414,2.667 0,1.1684 -0.508,2.5146 -0.4826,1.3208 -1.4478,2.5146 -0.9652,1.1684 -2.3622,1.9304 -1.3716,0.762 -3.1242,0.762 z m 0.4826,-0.9906 q 0.508,0 1.016,-0.5588 0.5334,-0.5588 0.9906,-1.4732 0.4826,-0.9398 0.8636,-2.0574 0.381,-1.1176 0.5842,-2.2352 0.2286,-1.1176 0.2286,-2.032 0,-0.5334 -0.2032,-0.7874 -0.2032,-0.2794 -0.6604,-0.2794 -0.4318,0 -0.9398,0.5588 -0.508,0.5334 -0.9906,1.4732 -0.4826,0.9144 -0.889,2.032 -0.381,1.0922 -0.635,2.2098 -0.254,1.0922 -0.254,2.032 0,0.5588 0.254,0.8382 0.254,0.2794 0.635,0.2794 z"
       id="text1"
       inkscape:label="go"
       aria-label="go" />
  </g>
</svg>
